HIERARCHY
ROOT Hips
{
	OFFSET 0.000000 0.000000 0.000000
	CHANNELS 6 Xposition Yposition Zposition Xrotation Yrotation Zrotation
	JOINT LeftUpLeg_virtual
	{
		OFFSET 0.000000 0.000000 0.000000
		CHANNELS 3 Xrotation Yrotation Zrotation
		JOINT LeftUpLeg
		{
			OFFSET 15.427100 -6.655098 0.678600
			CHANNELS 3 Xrotation Yrotation Zrotation
			JOINT LeftLeg
			{
				OFFSET 4.081073 -39.591068 13.024000
				CHANNELS 3 Xrotation Yrotation Zrotation
				JOINT LeftFoot
				{
					OFFSET -4.081074 -37.707932 -15.979700
					CHANNELS 3 Xrotation Yrotation Zrotation
					JOINT LeftToeBase
					{
						OFFSET 5.346399 -15.068900 20.645000
						CHANNELS 3 Xrotation Yrotation Zrotation
						JOINT LeftToe_End
						{
							OFFSET 2.754700 0.931300 11.300900
							CHANNELS 3 Xrotation Yrotation Zrotation
							End Site
							{
								OFFSET 0 0 0
							}
						}
					}
				}
			}
		}
	}
	JOINT RightUpLeg_virtual
	{
		OFFSET 0.000000 0.000000 0.000000
		CHANNELS 3 Xrotation Yrotation Zrotation
		JOINT RightUpLeg
		{
			OFFSET -15.569500 -6.655098 0.678600
			CHANNELS 3 Xrotation Yrotation Zrotation
			JOINT RightLeg
			{
				OFFSET -4.081825 -39.591045 13.023800
				CHANNELS 3 Xrotation Yrotation Zrotation
				JOINT RightFoot
				{
					OFFSET 4.081824 -37.707954 -15.979600
					CHANNELS 3 Xrotation Yrotation Zrotation
					JOINT RightToeBase
					{
						OFFSET -5.346400 -15.068900 20.645000
						CHANNELS 3 Xrotation Yrotation Zrotation
						JOINT RightToe_End
						{
							OFFSET -2.754700 0.931300 11.300900
							CHANNELS 3 Xrotation Yrotation Zrotation
							End Site
							{
								OFFSET 0 0 0
							}
						}
					}
				}
			}
		}
	}
	JOINT Spine_virtual
	{
		OFFSET 0.000000 0.000000 0.000000
		CHANNELS 3 Xrotation Yrotation Zrotation
		JOINT Spine
		{
			OFFSET -0.279200 12.230698 -2.892100
			CHANNELS 3 Xrotation Yrotation Zrotation
			JOINT Spine1
			{
				OFFSET -0.232667 10.192268 -1.242267
				CHANNELS 3 Xrotation Yrotation Zrotation
				JOINT Spine1_split
				{
					OFFSET -0.232667 10.192268 -1.242267
					CHANNELS 3 Xrotation Yrotation Zrotation
					JOINT Spine2
					{
						OFFSET -0.232667 10.192268 -1.242267
						CHANNELS 3 Xrotation Yrotation Zrotation
						JOINT Neck_virtual
						{
							OFFSET 0.000000 0.000000 0.000000
							CHANNELS 3 Xrotation Yrotation Zrotation
							JOINT Neck
							{
								OFFSET -0.418800 17.814194 8.416900
								CHANNELS 3 Xrotation Yrotation Zrotation
								JOINT Head
								{
									OFFSET 0.000000 7.031097 3.806800
									CHANNELS 3 Xrotation Yrotation Zrotation
									JOINT HeadTop_End
									{
										OFFSET 0.000000 24.646606 12.978600
										CHANNELS 3 Xrotation Yrotation Zrotation
										End Site
										{
											OFFSET 0 0 0
										}
									}
								}
							}
						}
						JOINT LeftShoulder_virtual
						{
							OFFSET 0.000000 0.000000 0.000000
							CHANNELS 3 Xrotation Yrotation Zrotation
							JOINT LeftShoulder
							{
								OFFSET 8.476499 7.247704 -3.868750
								CHANNELS 3 Xrotation Yrotation Zrotation
								JOINT LeftShoulder_split
								{
									OFFSET 8.476499 7.247704 -3.868750
									CHANNELS 3 Xrotation Yrotation Zrotation
									JOINT LeftArm
									{
										OFFSET 9.308998 -2.777710 0.208600
										CHANNELS 3 Xrotation Yrotation Zrotation
										JOINT LeftForeArm
										{
											OFFSET 29.972298 0.000000 0.000000
											CHANNELS 3 Xrotation Yrotation Zrotation
											JOINT LeftHand
											{
												OFFSET 26.026505 0.000000 0.000000
												CHANNELS 3 Xrotation Yrotation Zrotation
												End Site
												{
													OFFSET 0 0 0
												}
											}
										}
									}
								}
							}
						}
						JOINT RightShoulder_virtual
						{
							OFFSET 0.000000 0.000000 0.000000
							CHANNELS 3 Xrotation Yrotation Zrotation
							JOINT RightShoulder
							{
								OFFSET -7.570500 7.247704 -3.868750
								CHANNELS 3 Xrotation Yrotation Zrotation
								JOINT RightShoulder_split
								{
									OFFSET -7.570500 7.247704 -3.868750
									CHANNELS 3 Xrotation Yrotation Zrotation
									JOINT RightArm
									{
										OFFSET -9.308998 -2.777710 0.208500
										CHANNELS 3 Xrotation Yrotation Zrotation
										JOINT RightForeArm
										{
											OFFSET -29.972300 0.000000 0.000000
											CHANNELS 3 Xrotation Yrotation Zrotation
											JOINT RightHand
											{
												OFFSET -26.026505 0.000000 0.000000
												CHANNELS 3 Xrotation Yrotation Zrotation
												End Site
												{
													OFFSET 0 0 0
												}
											}
										}
									}
								}
							}
						}
					}
				}
			}
		}
	}
}
MOTION
Frames: 11
Frame Time: 0.03333333
1.763800 88.120773 6.394398 0.000000 0.000000 0.000000 -12.858783 -52.795942 -8.049470 -18.192877 0.639699 15.075933 24.683609 -9.058170 -1.703630 2.511252 -2.876291 -4.555382 -2.087650 -3.313425 0.064028 0.000000 0.000000 0.000000 -7.674269 -49.798578 -5.791993 0.331339 -8.007602 -19.327607 33.971862 6.904938 -2.878093 -15.821121 -11.291679 27.481003 -5.285777 0.029694 0.763774 0.000000 0.000000 0.000000 -13.267976 -46.013420 -8.515832 5.545935 5.888488 -1.394688 10.796784 10.070284 -3.354904 1.097714 -2.157204 0.603484 0.000000 0.000000 0.000000 10.950053 9.531092 -4.145401 -6.930770 -3.879343 2.099862 -4.649463 22.344532 0.585014 0.000000 0.000000 0.000000 10.163095 9.310764 -3.174816 2.474993 1.554023 -3.125428 -5.416644 2.911375 -6.002757 -15.981980 -3.242972 -56.298459 2.144678 -53.303350 1.160912 0.000000 0.000000 0.000000 10.020713 9.872181 -2.892508 2.845320 8.740837 9.475295 -3.202036 4.011172 -0.841907 -1.935761 -29.543215 65.792214 -8.220037 50.050264 9.072773 0.000000 0.000000 0.000000 
2.378321 88.287354 4.885902 0.000000 0.000000 0.000000 -11.728019 -52.692222 -6.918095 -17.760433 0.882743 15.177228 23.663003 -9.696319 -1.664461 0.764941 -3.538864 -3.256561 -1.303264 -3.038649 -0.705639 0.000000 0.000000 0.000000 -7.807113 -49.681167 -5.294898 0.493932 -7.877033 -20.416352 33.152389 6.709407 -2.844196 -16.799376 -10.596131 24.604454 -2.075364 -0.241830 1.366112 0.000000 0.000000 0.000000 -12.514023 -46.140486 -8.029744 5.275078 5.754300 -1.197716 11.071954 10.082818 -3.341139 1.474487 -1.732075 0.382322 0.000000 0.000000 0.000000 11.134933 9.518299 -4.089749 -6.901115 -3.612328 2.122264 -4.427067 22.925317 0.473974 0.000000 0.000000 0.000000 10.707613 9.283116 -3.211947 2.510500 1.407201 -3.434602 -4.965745 2.893006 -5.821836 -14.202906 -2.068814 -57.340306 1.979982 -51.747774 1.207050 0.000000 0.000000 0.000000 10.598645 9.923258 -2.978802 2.815371 9.168387 10.189561 -3.871898 3.651379 -0.214189 -0.975688 -29.772135 65.798832 -7.978661 49.108784 8.975722 0.000000 0.000000 0.000000 
3.024500 88.156799 2.419727 0.000000 0.000000 0.000000 -10.295407 -51.794639 -5.710501 -17.964294 1.294833 16.183064 21.336905 -10.240522 -1.999996 0.113757 -4.058150 -4.566410 -0.443685 -2.681460 -1.060877 0.000000 0.000000 0.000000 -7.470419 -48.546533 -4.647127 -0.837608 -7.985503 -21.427149 34.101960 7.191477 -1.948822 -18.719153 -9.347045 19.840666 0.118944 -0.332237 1.617110 0.000000 0.000000 0.000000 -11.368257 -45.205747 -7.216528 5.382244 5.353579 -1.171274 11.667584 9.991533 -3.326381 2.044221 -0.951494 0.331209 0.000000 0.000000 0.000000 11.637301 9.394328 -4.031739 -7.993153 -3.186337 2.263089 -4.225281 22.920877 0.266180 0.000000 0.000000 0.000000 11.502771 9.149984 -3.268966 2.468540 1.457491 -3.222341 -4.641009 2.108659 -4.500360 -13.202739 -0.778525 -59.813121 3.036864 -50.477963 2.600650 0.000000 0.000000 0.000000 11.518037 9.817436 -3.176487 2.920577 9.570349 11.036289 -4.494565 3.144024 0.150477 -1.193220 -27.709157 64.565519 -7.459585 48.551580 8.295478 0.000000 0.000000 0.000000 
3.552876 87.718338 -0.990704 0.000000 0.000000 0.000000 -8.562158 -50.386606 -4.592142 -19.395406 1.585575 17.694577 18.684568 -10.337364 -2.493667 1.561975 -4.281930 -7.739526 0.181174 -2.280667 -1.119162 0.000000 0.000000 0.000000 -6.391070 -46.564169 -3.814883 -3.900193 -8.459674 -22.052644 36.902675 8.479514 -0.066140 -19.822712 -7.200777 14.457636 -0.867515 -0.435389 1.621396 0.000000 0.000000 0.000000 -9.531732 -43.460183 -6.056607 5.776598 4.699591 -1.279148 12.533769 9.744336 -3.305700 2.162078 -0.343871 0.704207 0.000000 0.000000 0.000000 12.497190 9.127335 -3.978249 -10.091371 -2.650313 2.545583 -4.213454 22.326061 0.066147 0.000000 0.000000 0.000000 12.562951 8.871695 -3.337585 2.386003 1.751303 -2.484310 -4.427464 1.006406 -2.630450 -14.085159 -0.061177 -62.845834 4.379802 -48.809611 4.504161 0.000000 0.000000 0.000000 12.710835 9.524558 -3.417744 3.135825 9.929312 11.635676 -4.989571 2.478261 0.134358 -2.971250 -23.812691 62.181216 -6.887562 49.067526 7.154785 0.000000 0.000000 0.000000 
3.958205 86.772598 -4.912178 0.000000 0.000000 0.000000 -6.263029 -48.510527 -3.461959 -22.573292 1.987869 19.372474 16.561226 -9.552806 -2.897518 4.955029 -4.426436 -10.810754 0.388051 -1.941604 -1.139967 0.000000 0.000000 0.000000 -4.688866 -44.292045 -2.973174 -8.882329 -9.578273 -21.942613 40.722674 10.784711 2.665878 -18.881042 -4.110521 10.040650 -5.816812 -0.630986 1.357121 0.000000 0.000000 0.000000 -7.005322 -41.037716 -4.722445 6.311390 3.891581 -1.449965 13.657773 9.287982 -3.277690 2.307868 0.225943 1.405885 0.000000 0.000000 0.000000 13.696297 8.667410 -3.944435 -13.112844 -2.145252 2.963503 -4.730858 20.968705 0.051407 0.000000 0.000000 0.000000 13.866822 8.397121 -3.437283 2.297895 2.132816 -1.380500 -4.177585 -0.135226 -0.964201 -16.553201 -0.293639 -65.457425 4.917464 -46.580746 5.917394 0.000000 0.000000 0.000000 14.122744 9.019556 -3.643606 3.424526 10.198663 11.672405 -5.473656 1.987914 0.058466 -5.736135 -18.707203 59.215070 -6.476800 51.316103 5.651649 0.000000 0.000000 0.000000 
4.204157 85.209587 -8.494976 0.000000 0.000000 0.000000 -3.252371 -46.066365 -2.291222 -27.915157 2.332226 20.629617 15.468835 -8.126252 -3.059836 9.605992 -5.068718 -12.651844 -0.501337 -1.708674 -1.021449 0.000000 0.000000 0.000000 -2.260195 -41.604619 -2.092616 -15.493246 -11.496075 -20.880727 44.668536 14.104896 5.929301 -16.562908 -0.248494 6.674463 -12.586859 -0.878905 0.901747 0.000000 0.000000 0.000000 -3.857505 -38.184739 -3.469021 6.966420 3.007635 -1.573904 15.080204 8.608040 -3.286569 2.307842 0.655002 1.657008 0.000000 0.000000 0.000000 15.250755 8.029930 -3.948856 -16.770597 -1.872396 3.465579 -5.909002 19.072262 0.313385 0.000000 0.000000 0.000000 15.444502 7.753153 -3.601908 2.217915 2.420507 -0.159535 -3.677849 -1.180051 0.135263 -19.792807 -1.543599 -66.777332 4.105660 -44.553679 6.307533 0.000000 0.000000 0.000000 15.745413 8.330550 -3.837876 3.754319 10.382958 11.023376 -5.862012 1.862391 -0.197798 -8.781564 -13.711979 56.280813 -6.170331 55.313894 3.725667 0.000000 0.000000 0.000000 
4.299756 83.048477 -11.840767 0.000000 0.000000 0.000000 0.561331 -42.785555 -1.005522 -35.584090 2.331815 21.509884 16.144004 -7.141583 -2.967499 14.594415 -6.967846 -13.758844 -2.093497 -1.561402 -0.802634 0.000000 0.000000 0.000000 1.131899 -38.371364 -1.053815 -23.160473 -14.449943 -18.784258 48.476130 17.863318 9.417718 -14.626659 3.942453 3.043190 -17.712308 -0.997355 0.411376 0.000000 0.000000 0.000000 0.051682 -35.424503 -2.278996 7.711916 2.234627 -1.591691 16.801162 7.747992 -3.379868 2.155459 0.819531 1.752911 0.000000 0.000000 0.000000 17.073975 7.240938 -4.008539 -20.813106 -1.881317 3.905915 -7.803167 16.702557 0.915858 0.000000 0.000000 0.000000 17.254805 6.969208 -3.878461 2.191025 2.423063 0.881181 -2.716382 -2.308583 0.724104 -22.900376 -3.919957 -66.416882 2.025606 -43.956061 5.639432 0.000000 0.000000 0.000000 17.586149 7.531329 -4.019858 4.115573 10.666411 9.897008 -6.062131 2.462743 -0.568962 -11.617505 -9.975531 53.997659 -5.667027 60.588955 1.212936 0.000000 0.000000 0.000000 
4.205436 80.207809 -14.823032 0.000000 0.000000 0.000000 4.978962 -38.346851 0.265601 -45.153687 2.240809 21.695263 18.777898 -6.509586 -2.846467 17.494466 -9.837942 -13.356455 -3.518524 -1.546222 -0.588763 0.000000 0.000000 0.000000 5.107545 -34.484351 0.009650 -31.499436 -18.354043 -16.073238 52.327650 21.451700 12.904684 -14.193046 7.957970 -1.439052 -19.355849 -0.857975 -0.024882 0.000000 0.000000 0.000000 4.380141 -32.732671 -1.216499 8.530214 1.715804 -1.517952 18.809074 6.771870 -3.591797 1.817265 0.826640 1.538656 0.000000 0.000000 0.000000 19.091400 6.357853 -4.151860 -24.925013 -2.235961 4.133417 -10.323305 13.805065 1.738866 0.000000 0.000000 0.000000 19.209969 6.119969 -4.272364 2.203217 2.143062 1.620431 -1.805555 -3.233281 0.595153 -24.799727 -7.192706 -64.016740 -0.777804 -46.384453 4.040019 0.000000 0.000000 0.000000 19.623987 6.697054 -4.231093 4.470064 11.245134 8.430565 -5.963061 3.435175 -0.911535 -13.768071 -8.093080 52.466812 -4.477802 66.584133 -2.164396 0.000000 0.000000 0.000000 
4.048573 76.654831 -16.941002 0.000000 0.000000 0.000000 9.488591 -32.742144 1.254964 -56.028417 1.906061 21.303213 24.122264 -6.102746 -2.818275 17.455920 -13.281831 -11.716644 -4.432428 -1.636047 -0.341435 0.000000 0.000000 0.000000 9.398151 -29.868557 0.950442 -40.608442 -22.334577 -13.753740 57.287764 24.867008 15.586512 -15.172299 11.323271 -6.044995 -19.056392 -0.464513 -0.433103 0.000000 0.000000 0.000000 8.921448 -29.847510 -0.182324 9.393835 1.540392 -1.432533 20.916713 5.766652 -3.938179 1.239431 0.764341 1.275905 0.000000 0.000000 0.000000 21.166401 5.466315 -4.385571 -28.681730 -2.834700 4.102791 -13.269764 10.471013 2.617505 0.000000 0.000000 0.000000 21.179638 5.282145 -4.774599 2.256185 1.554559 2.136652 -1.166562 -4.034588 0.156801 -25.042807 -10.658876 -59.305720 -3.887489 -52.216195 1.519369 0.000000 0.000000 0.000000 21.723451 5.880227 -4.530232 4.839942 12.310872 6.803673 -5.231293 4.400781 -1.283029 -15.515709 -8.002829 51.161184 -1.809668 72.602042 -6.951463 0.000000 0.000000 0.000000 
3.832949 72.523994 -18.262260 0.000000 0.000000 0.000000 13.757744 -26.315618 1.847302 -67.810029 1.118882 21.139176 33.566343 -5.940651 -2.882251 15.570396 -16.753214 -10.111560 -4.883543 -1.695655 -0.418011 0.000000 0.000000 0.000000 13.823917 -24.856003 1.687262 -50.658584 -25.390984 -12.735204 64.254690 27.873929 16.573586 -16.581864 13.437630 -9.811591 -19.617794 0.114647 -0.829900 0.000000 0.000000 0.000000 13.385707 -26.472492 0.770593 10.116618 1.692954 -1.405302 22.911774 4.797966 -4.392932 0.702016 0.851378 1.149310 0.000000 0.000000 0.000000 23.068768 4.607040 -4.692326 -31.767357 -3.568232 3.819885 -16.498774 6.830773 3.383165 0.000000 0.000000 0.000000 22.952921 4.499725 -5.317821 2.358996 0.746825 2.498901 -0.762187 -4.897497 -0.197735 -24.076077 -13.514824 -52.740132 -7.493704 -60.401282 -2.189154 0.000000 0.000000 0.000000 23.626190 5.104002 -4.894237 5.248384 13.958852 5.285007 -4.304771 4.904152 -1.623935 -17.343502 -8.638253 49.341946 3.683331 77.806633 -14.313675 0.000000 0.000000 0.000000 
3.498442 68.052231 -18.788712 0.000000 0.000000 0.000000 17.753704 -19.892958 2.111465 -79.344450 -0.255681 21.657440 47.580583 -4.985316 -3.055343 13.047122 -19.185231 -8.306468 -6.015198 -1.729561 -0.803455 0.000000 0.000000 0.000000 18.219144 -19.465512 2.119548 -61.473683 -26.246817 -13.020889 73.280724 30.168276 15.465059 -18.188546 13.949206 -12.384496 -22.179330 0.664759 -1.067622 0.000000 0.000000 0.000000 17.654115 -22.596306 1.528243 10.524769 2.054210 -1.496917 24.524305 3.933804 -4.869192 0.369889 0.819562 0.973229 0.000000 0.000000 0.000000 24.588425 3.845237 -5.018612 -33.705389 -4.257085 3.411258 -19.681246 3.153349 3.864549 0.000000 0.000000 0.000000 24.332315 3.806286 -5.822832 2.414444 -0.119149 2.760247 -0.292878 -5.431635 -0.393678 -22.964305 -15.730926 -45.157584 -12.766933 -69.833056 -8.178607 0.000000 0.000000 0.000000 25.114199 4.402135 -5.280236 5.720177 16.277802 4.065605 -3.422909 4.515604 -1.594493 -19.942885 -8.765224 46.289336 13.370427 81.424782 -25.370297 0.000000 0.000000 0.000000 
